<svg xml:space="preserve" xmlns="http://www.w3.org/2000/svg" viewBox="0 0 126.6 156.7"><path d="M568.6 163.6c22.4 0 25-2.1 25-19.7 0-16.8-2.6-18.8-25-18.8-22.5 0-25.2 2-25.2 18.8 0 17.6 2.7 19.7 25.2 19.7zm0 53.6c19.7 0 22.2-2 22.2-17.4 0-16-2.5-17.9-22.2-17.9-19.9 0-22.4 2-22.4 18 0 15.3 2.5 17.3 22.4 17.3zM519 141.6c0-31.3 5.2-34.7 49.6-34.7 44.3 0 49.4 3.4 49.4 34.7 0 22.4-2.8 29.2-20.6 31.3 15 2.2 17.6 9.2 17.6 27.8 0 30-4.8 34.8-46.4 34.8-41.7 0-46.7-4.9-46.7-34.8 0-18.6 2.5-25.6 17.7-27.8-17.7-2.1-20.6-9-20.6-31.3m-160.1 22c22.3 0 25-2.1 25-19.7 0-16.8-2.7-18.8-25-18.8-22.6 0-25.3 2-25.3 18.8 0 17.6 2.7 19.7 25.3 19.7zm0 53.6c19.7 0 22.2-2 22.2-17.4 0-16-2.5-17.9-22.2-17.9-20 0-22.4 2-22.4 18 0 15.3 2.5 17.3 22.4 17.3zm-49.7-75.6c0-31.3 5.2-34.7 49.7-34.7 44.2 0 49.4 3.4 49.4 34.7 0 22.4-2.9 29.2-20.6 31.3 15 2.2 17.5 9.2 17.5 27.8 0 30-4.8 34.8-46.3 34.8-41.8 0-46.8-4.9-46.8-34.8 0-18.6 2.5-25.6 17.7-27.8-17.7-2.1-20.6-9-20.6-31.3m467.9-16.5c-21.6 0-23.6 2-23.6 18.7l-24.2-1.5c0-31.1 4.5-35.2 47.8-35.4 42.5-.2 47.7 4 47.7 37.7 0 35.2-5.6 39.5-44.8 39.5a102 102 0 0 1-24.5-2.2l.5 33.5h44.2l1.5-14.3h19.7v32.7h-87.8l-1-70c13.4 1.3 24.5 2.2 41.7 2.2 24.3 0 26.3-4.7 26.3-21.9 0-16.8-2.9-19-23.5-19m-66.7 906c1.6 3 4.2 7 6.6 10.6-1.7 4.3-4.6 11-6.1 11.3-1.8.4-9.8-10.7-14.7-21.3 6.7.4 11.7-.2 14.2-.6M155.6 212.9v-86.2l-28.3-1v-17.2h78.2v17.2l-25.8 1v107.1h-10.4l-.1-.1-44.5-6.8 2.7-17.6 28.2 3.6" style="fill:#000;fill-opacity:1;fill-rule:nonzero;stroke:none" transform="matrix(.13333 0 0 -.13333 0 156.7)"/><path d="M914 35.8H35.5v273.6H914ZM591 460l-18-8-53.5-15-43.3-5.8s-31.3-2-40.2 3.8c-9 5.8-37.6 3-40.2 3-2.6-.2-23.3-6.1-38.8-11l-15-5a99.5 99.5 0 0 1-48 17.2s-2.4 4-3.2 11c-.9 6.9-4.5 61.4-2.7 73.6 2 12.3 32.6 32 59.1 54.4 26.5 22.5 32.5 51.1 32.5 51.1s7.6 13 15.6 17.5c8 4.3 32 .5 49-6.4 17.1-7 109.9-1.4 109.9-1.4 0-14.5 13.8-78.5 18.5-95.2 3-10.8 8.5-34.3 12.2-50 3.6-15 5.8-31.4 6.1-33.8zM35.5 1137H914V410.7l-11.5 16.5-33.3 27.6-49.8 28.7-24.3 4.3-23 4.5s-23.3 15.7-31 15.4c-8-.3-24.4-11.1-24.4-11.1l-18.9-.7-6.3-4a457.6 457.6 0 0 0-8 41.4c-.2 3.4-2.5 18.5-2.7 25.4-.2 7-5.6 26-5.6 26l-1 79a89 89 0 0 0-25-17.4S632 580 636.9 535.5c1.8-5 3.4-9 4.6-11.3 2.7-5.3 9.2-22 13.7-33.8 1.3-3.3 3.4-10 4.7-14.3l-2.3-1-4.5 8.6c-3.8 6.8-22 3.5-25.5 6-2.7 1.9-3.4 8.3-3.7 11.6v1.8l-.5 5.4.6 18.2c0 .2 1 108.5 12.4 149.1l.1.3.1.3.6 1.8s29.9-1 63.1 39c10 13.8 22.3 36.3 25.6 46.5l2.5 8.4c-3 8.5-7.3 17.2-13 21.1 0 0 9.3-.2 16-2 0 4.6-.4 9.2-1.7 13.3-4 12 8.2 29.3 14.5 33.6 6.2 4.3 5.8 15.3 5.7 18.8 0 2.2-2 6.9-2.9 12.2 0 0-6.8 21.3-3.6 34.8 0 0-.2-18.7 17-21.2l4-.3c7-.7 14.4-2.2 18.8-2.8 9.7-1.4 14.2 13.3 14.2 13.3s5.6 4.8 12.4 11.4c6.7 6.7 9.5 9 8 17.2-1.4 8-43.7 39.7-43.7 39.7v.2c-8.7 6.6-17 12.4-20.4 14.2 0 0 6.1 5 11 2 4.3-2.4-.6-5 9.8-13 .4 3.8.6 10.2-1.1 15.1-2 5.8-19.7 22.5-27.6 29.8l-6.4-13.4 4.2 40.1a74 74 0 0 1-1.5 24.3c-2.7 6.6-9.1-.2-14.8-8.3A211.1 211.1 0 0 1 714 1025s-10.4.8-20.2.8v-.1a75.5 75.5 0 0 1-16-1 33 33 0 0 1-16.8-7.4 658.2 658.2 0 0 1-40.7-48.7s-29-30.7-34.8-34.4c-5.6-3.7-14-13.8-30.7-18.5 0 0-3-6.3-4-11.5-.3-6.2.4-12.9 3.8-17.7 0 0-5 3.3-11.4 7.1-19.7-13.8-71.6-42.6-76.6-46.1-6.2-4.3-30.6-21.4-49.7-23.8 0 0-127.5-27.1-134-38.4a74.9 74.9 0 0 1-42.7-41.7c-5.9-13-21.2-56-37.6-85.6-16.4-29.6-71.6-60.6-79.5-67.3-7.9-6.7-19-4.7-4.5-19.3 14.4-14.6 50.8-9.3 77.3-.8a52.9 52.9 0 0 1 8.4 3.7c3.5 1.9 7 4.2 10.6 6.8 14.9 13.6 24.6 40.4 24.6 40.4a41 41 0 0 0 2.7 46.5c-1.2-18.1 2.4-36 17.6-47.9a17.8 17.8 0 0 0 8.5-11.1c5.4-21-10-44.9-24.7-57.6-10.5-9.1-11.1-10.8-10-21 0-.4 29.5-89 20.9-121.2L237 404s8 55.9-1.9 99.8c-.3-9.4-1.4-20.3-2.7-31 0 0-5.8-46.4-11.6-55.7-2.2-3.5-2-10-.8-16.7l-22.2-6.9s-31-10.7-35.3-12c-4.3-1.2-22.6-1-22.6-1s-28.8-.5-34-1.2c-5.2-.6-27.4-11.8-27.4-11.8l-19.2-.7-23.8-8.1ZM0 1175.5V0h949.5v1175.6H0" style="fill:#000;fill-opacity:1;fill-rule:nonzero;stroke:none" transform="matrix(.13333 0 0 -.13333 0 156.7)"/></svg>
