<svg width="1103.1" height="174.5" viewBox="0 0 291.86 46.17" xmlns="http://www.w3.org/2000/svg">
  <path d="M6.08 40.3v-4.74h-18.53v4.73h6.49v18.24h5.55V40.3zm18.56 18.23V53.8H13.96v-4.77h9.54v-4.44h-9.54v-4.32h10.1v-4.7H8.6v22.97zm23.88-3.18-3.86-3.63a5.86 5.86 0 0 1-4.87 2.33c-3.83 0-6.52-2.85-6.52-7.04 0-4.05 2.76-7.04 6.62-7.04 1.75 0 3.6.68 4.64 2.1l3.76-3.75c-1.91-2.21-5.38-3.38-8.6-3.38-7 0-12.46 4.7-12.46 12.07 0 7.2 5.3 12.14 12.37 12.14 3.86 0 6.9-1.46 8.92-3.8zm22.42 3.18V35.56H65.4v8.7h-8.95v-8.7H50.9v22.97h5.55v-9.6h8.95v9.6zM204.55 40.3v-4.74h-18.53v4.73h6.49v18.24h5.55V40.3zm18.55 18.23V53.8h-10.67v-4.77h9.54v-4.44h-9.54v-4.32h10.1v-4.7h-15.45v22.97zm23.89-3.18-3.86-3.63a5.86 5.86 0 0 1-4.87 2.33c-3.83 0-6.52-2.85-6.52-7.04 0-4.05 2.76-7.04 6.62-7.04 1.75 0 3.6.68 4.64 2.1l3.76-3.75c-1.91-2.21-5.38-3.38-8.6-3.38-7 0-12.46 4.7-12.46 12.07 0 7.2 5.3 12.14 12.37 12.14 3.86 0 6.9-1.46 8.92-3.8zm22.42 3.18V35.56h-5.55v8.7h-8.95v-8.7h-5.55v22.97h5.55v-9.6h8.95v9.6z" style="-inkscape-font-specification:'Avenir Next LT Pro Bold'" transform="translate(17.45 -23.96)" aria-label="TECH" font-size="32.45" fill="#fff"/>
  <g stroke-width="2">
    <g fill="#ffcd00">
      <path d="m110.31 23.13 38.64-17.04 38.55 17-38.55 16.99Z" stroke="#fff"/>
      <path d="M115.5 48.25v-8.02h-2.8l-1.75 5.14h-.04l-1.83-5.14h-2.75v8.02h1.82l-.04-5.68h.03l2.03 5.68h1.36l2.09-5.68h.03l-.04 5.68zm7.25 0V46.6h-3.73v-1.67h3.33v-1.55h-3.33v-1.5h3.53v-1.65h-5.4v8.02zm6.88 0V46.6h-3.73v-1.67h3.33v-1.55h-3.33v-1.5h3.53v-1.65h-5.4v8.02zm6.98-6.37v-1.65h-6.47v1.65h2.27v6.37h1.93v-6.37zm6.36-.87a4.01 4.01 0 0 0-2.63-.99c-1.5 0-3.1.74-3.1 2.52 0 1.45 1.03 1.97 2.05 2.3 1.05.34 1.66.53 1.66 1.15 0 .64-.52.87-1.1.87-.64 0-1.36-.36-1.74-.85l-1.27 1.29c.7.74 1.86 1.16 3 1.16 1.59 0 3.07-.83 3.07-2.68 0-1.6-1.4-2.06-2.5-2.41-.75-.24-1.23-.41-1.23-.94 0-.64.63-.8 1.13-.8.5 0 1.1.26 1.42.68z" style="-inkscape-font-specification:'Avenir Next LT Pro Bold'" transform="translate(24.26 -21.15)" aria-label="MEETS" font-size="11.33" fill="#000" />
    </g>
    <path d="M110.31 23.13H92.34m113.14-.05H187.5" fill="none" stroke="#fff"/>
  </g>
</svg>
